<mxfile host="app.diagrams.net" modified="2023-12-28T08:02:39.725Z" agent="Mozilla/5.0 (Windows NT 10.0; Win64; x64) AppleWebKit/537.36 (KHTML, like Gecko) Chrome/120.0.0.0 Safari/537.36" etag="Em23lqpL9uKX339MEMjL" version="22.1.15" type="github">
  <diagram name="第 1 页" id="0hUL2M-2vLGxXfTMVPdV">
    <mxGraphModel dx="1562" dy="810" grid="1" gridSize="15" guides="1" tooltips="1" connect="1" arrows="1" fold="1" page="1" pageScale="1" pageWidth="1654" pageHeight="2336" math="0" shadow="0">
      <root>
        <mxCell id="0" />
        <mxCell id="1" parent="0" />
        <mxCell id="w3M6Ln6Zr0UCdsf9hraC-6" value="" style="verticalLabelPosition=bottom;verticalAlign=top;html=1;shape=mxgraph.basic.rect;fillColor2=none;strokeWidth=1;size=20;indent=5;" vertex="1" parent="1">
          <mxGeometry x="840" y="961" width="480" height="359" as="geometry" />
        </mxCell>
        <mxCell id="w3M6Ln6Zr0UCdsf9hraC-5" value="" style="verticalLabelPosition=bottom;verticalAlign=top;html=1;shape=mxgraph.basic.rect;fillColor2=none;strokeWidth=1;size=20;indent=5;" vertex="1" parent="1">
          <mxGeometry x="240" y="960" width="480" height="359" as="geometry" />
        </mxCell>
        <mxCell id="w3M6Ln6Zr0UCdsf9hraC-4" value="" style="verticalLabelPosition=bottom;verticalAlign=top;html=1;shape=mxgraph.basic.rect;fillColor2=none;strokeWidth=1;size=20;indent=5;" vertex="1" parent="1">
          <mxGeometry x="839" y="541" width="480" height="359" as="geometry" />
        </mxCell>
        <mxCell id="w3M6Ln6Zr0UCdsf9hraC-3" value="" style="verticalLabelPosition=bottom;verticalAlign=top;html=1;shape=mxgraph.basic.rect;fillColor2=none;strokeWidth=1;size=20;indent=5;" vertex="1" parent="1">
          <mxGeometry x="240" y="541" width="480" height="359" as="geometry" />
        </mxCell>
        <mxCell id="w3M6Ln6Zr0UCdsf9hraC-2" value="" style="verticalLabelPosition=bottom;verticalAlign=top;html=1;shape=mxgraph.basic.rect;fillColor2=none;strokeWidth=1;size=20;indent=5;" vertex="1" parent="1">
          <mxGeometry x="839" y="121" width="480" height="359" as="geometry" />
        </mxCell>
        <mxCell id="w3M6Ln6Zr0UCdsf9hraC-1" value="" style="verticalLabelPosition=bottom;verticalAlign=top;html=1;shape=mxgraph.basic.rect;fillColor2=none;strokeWidth=1;size=20;indent=5;" vertex="1" parent="1">
          <mxGeometry x="240" y="121" width="480" height="359" as="geometry" />
        </mxCell>
        <mxCell id="h8Ty44yPj9Jnduj1fUJp-2" value="" style="html=1;overflow=block;blockSpacing=1;whiteSpace=wrap;fontSize=13;spacing=0;strokeColor=#4c535d;strokeOpacity=100;rounded=1;absoluteArcSize=1;arcSize=9;rotation=-270;strokeWidth=0.8;lucidId=GGi08Mpgi-kJ;" parent="1" vertex="1">
          <mxGeometry x="120" y="300" width="360" height="1" as="geometry" />
        </mxCell>
        <mxCell id="h8Ty44yPj9Jnduj1fUJp-3" value="" style="html=1;overflow=block;blockSpacing=1;whiteSpace=wrap;fontSize=13;spacing=0;strokeColor=#3a414a;strokeOpacity=100;rounded=1;absoluteArcSize=1;arcSize=9;rotation=-270;strokeWidth=0.8;lucidId=9Gi06TaQGskj;" parent="1" vertex="1">
          <mxGeometry x="180" y="300" width="360" height="1" as="geometry" />
        </mxCell>
        <mxCell id="h8Ty44yPj9Jnduj1fUJp-4" value="" style="html=1;overflow=block;blockSpacing=1;whiteSpace=wrap;fontSize=13;spacing=0;strokeColor=#3a414a;strokeOpacity=100;rounded=1;absoluteArcSize=1;arcSize=9;strokeWidth=0.8;lucidId=pHi0_KK7AGBP;" parent="1" vertex="1">
          <mxGeometry x="360" y="360" width="300" height="1" as="geometry" />
        </mxCell>
        <mxCell id="h8Ty44yPj9Jnduj1fUJp-5" value="" style="html=1;overflow=block;blockSpacing=1;whiteSpace=wrap;fontSize=13;spacing=0;strokeColor=#3a414a;strokeOpacity=100;rounded=1;absoluteArcSize=1;arcSize=9;rotation=-270;strokeWidth=0.8;lucidId=jIi0ABCT3JBj;" parent="1" vertex="1">
          <mxGeometry x="480" y="300" width="360" height="1" as="geometry" />
        </mxCell>
        <mxCell id="h8Ty44yPj9Jnduj1fUJp-6" value="" style="html=1;overflow=block;blockSpacing=1;whiteSpace=wrap;fontSize=13;spacing=0;strokeColor=#3a414a;strokeOpacity=100;rounded=1;absoluteArcSize=1;arcSize=9;rotation=-270;strokeWidth=0.8;lucidId=IIi0kp2o7ab.;" parent="1" vertex="1">
          <mxGeometry x="540" y="420" width="120" height="1" as="geometry" />
        </mxCell>
        <mxCell id="h8Ty44yPj9Jnduj1fUJp-7" value="" style="html=1;overflow=block;blockSpacing=1;whiteSpace=wrap;fontSize=13;spacing=0;strokeColor=#3a414a;strokeOpacity=100;rounded=1;absoluteArcSize=1;arcSize=9;rotation=-270;strokeWidth=0.8;lucidId=XIi03KQC-35q;" parent="1" vertex="1">
          <mxGeometry x="480" y="420" width="120" height="1" as="geometry" />
        </mxCell>
        <mxCell id="h8Ty44yPj9Jnduj1fUJp-8" value="" style="html=1;overflow=block;blockSpacing=1;whiteSpace=wrap;fontSize=13;spacing=0;strokeColor=#3a414a;strokeOpacity=100;rounded=1;absoluteArcSize=1;arcSize=9;rotation=-270;strokeWidth=0.8;lucidId=3Ii09AHKtTk0;" parent="1" vertex="1">
          <mxGeometry x="420" y="420" width="120" height="1" as="geometry" />
        </mxCell>
        <mxCell id="h8Ty44yPj9Jnduj1fUJp-9" value="" style="html=1;overflow=block;blockSpacing=1;whiteSpace=wrap;fontSize=13;spacing=0;strokeColor=#3a414a;strokeOpacity=100;rounded=1;absoluteArcSize=1;arcSize=9;strokeWidth=0.8;lucidId=dJi0xmede7M8;" parent="1" vertex="1">
          <mxGeometry x="360" y="435" width="120" height="1" as="geometry" />
        </mxCell>
        <mxCell id="h8Ty44yPj9Jnduj1fUJp-10" value="" style="html=1;overflow=block;blockSpacing=1;whiteSpace=wrap;fontSize=13;spacing=0;strokeColor=#3a414a;strokeOpacity=100;rounded=1;absoluteArcSize=1;arcSize=9;strokeWidth=0.8;lucidId=pJi0sJt_oInW;" parent="1" vertex="1">
          <mxGeometry x="361" y="397" width="120" height="1" as="geometry" />
        </mxCell>
        <mxCell id="h8Ty44yPj9Jnduj1fUJp-11" value="" style="html=1;overflow=block;blockSpacing=1;whiteSpace=wrap;fontSize=13;spacing=0;strokeColor=#3a414a;strokeOpacity=100;rounded=1;absoluteArcSize=1;arcSize=9;strokeWidth=0.8;lucidId=CJi0dUp6mxQU;" parent="1" vertex="1">
          <mxGeometry x="361" y="270" width="299" height="1" as="geometry" />
        </mxCell>
        <mxCell id="h8Ty44yPj9Jnduj1fUJp-12" value="" style="html=1;overflow=block;blockSpacing=1;whiteSpace=wrap;fontSize=13;spacing=0;strokeColor=#3a414a;strokeOpacity=100;rounded=1;absoluteArcSize=1;arcSize=9;rotation=-270;strokeWidth=0.8;lucidId=.Ji0g_z8zu6y;" parent="1" vertex="1">
          <mxGeometry x="526" y="195" width="150" height="1" as="geometry" />
        </mxCell>
        <mxCell id="h8Ty44yPj9Jnduj1fUJp-13" value="" style="html=1;overflow=block;blockSpacing=1;whiteSpace=wrap;fontSize=13;spacing=0;strokeColor=#3a414a;strokeOpacity=100;rounded=1;absoluteArcSize=1;arcSize=9;rotation=-270;strokeWidth=0.8;lucidId=~Ji0u-Yy-_38;" parent="1" vertex="1">
          <mxGeometry x="466" y="195" width="150" height="1" as="geometry" />
        </mxCell>
        <mxCell id="h8Ty44yPj9Jnduj1fUJp-14" value="" style="html=1;overflow=block;blockSpacing=1;whiteSpace=wrap;fontSize=13;spacing=0;strokeColor=#3a414a;strokeOpacity=100;rounded=1;absoluteArcSize=1;arcSize=9;strokeWidth=0.8;lucidId=tKi029dmTjMB;" parent="1" vertex="1">
          <mxGeometry x="361" y="225" width="179" height="1" as="geometry" />
        </mxCell>
        <mxCell id="h8Ty44yPj9Jnduj1fUJp-15" value="" style="html=1;overflow=block;blockSpacing=1;whiteSpace=wrap;fontSize=13;spacing=0;strokeColor=#3a414a;strokeOpacity=100;rounded=1;absoluteArcSize=1;arcSize=9;rotation=-270;strokeWidth=0.8;lucidId=IKi0VMVsiuCA;" parent="1" vertex="1">
          <mxGeometry x="368" y="172" width="105" height="1" as="geometry" />
        </mxCell>
        <mxCell id="h8Ty44yPj9Jnduj1fUJp-16" value="" style="html=1;overflow=block;blockSpacing=1;whiteSpace=wrap;fontSize=13;spacing=0;strokeColor=#3a414a;strokeOpacity=100;rounded=1;absoluteArcSize=1;arcSize=9;rotation=-270;strokeWidth=0.8;lucidId=TKi0TNewPdmN;" parent="1" vertex="1">
          <mxGeometry x="427" y="172" width="105" height="1" as="geometry" />
        </mxCell>
        <mxCell id="h8Ty44yPj9Jnduj1fUJp-17" value="" style="html=1;overflow=block;blockSpacing=1;whiteSpace=wrap;fontSize=16.7;fontFamily=Liberation Serif;fontColor=#3a414a;spacing=9;strokeColor=#3a414a;strokeOpacity=100;rounded=1;absoluteArcSize=1;arcSize=9;strokeWidth=0.8;lucidId=SLi04-iJL32n;" parent="1" vertex="1">
          <mxGeometry x="495" y="308" width="77" height="6" as="geometry" />
        </mxCell>
        <mxCell id="h8Ty44yPj9Jnduj1fUJp-18" value="开放格" style="html=1;overflow=block;blockSpacing=1;whiteSpace=wrap;fontSize=16.7;fontFamily=Liberation Serif;fontColor=#3a414a;spacing=3.8;strokeOpacity=0;fillOpacity=0;rounded=1;absoluteArcSize=1;arcSize=9;fillColor=#ffffff;strokeWidth=0.8;lucidId=wMi0a5nb7~Uo;" parent="1" vertex="1">
          <mxGeometry x="421" y="296" width="60" height="32" as="geometry" />
        </mxCell>
        <mxCell id="h8Ty44yPj9Jnduj1fUJp-19" value="玻璃" style="html=1;overflow=block;blockSpacing=1;whiteSpace=wrap;fontSize=16.7;fontFamily=Liberation Serif;fontColor=#3a414a;spacing=3.8;strokeOpacity=0;fillOpacity=0;rounded=1;absoluteArcSize=1;arcSize=9;fillColor=#ffffff;strokeWidth=0.8;lucidId=YMi0Ng7yW5L~;" parent="1" vertex="1">
          <mxGeometry x="255" y="277" width="30" height="45" as="geometry" />
        </mxCell>
        <mxCell id="h8Ty44yPj9Jnduj1fUJp-20" value="玻璃" style="html=1;overflow=block;blockSpacing=1;whiteSpace=wrap;fontSize=16.7;fontFamily=Liberation Serif;fontColor=#3a414a;spacing=3.8;strokeOpacity=0;fillOpacity=0;rounded=1;absoluteArcSize=1;arcSize=9;fillColor=#ffffff;strokeWidth=0.8;lucidId=ZMi0ydUcW1Ka;" parent="1" vertex="1">
          <mxGeometry x="318" y="277" width="30" height="45" as="geometry" />
        </mxCell>
        <mxCell id="h8Ty44yPj9Jnduj1fUJp-21" value="开放格" style="html=1;overflow=block;blockSpacing=1;whiteSpace=wrap;fontSize=16.7;fontFamily=Liberation Serif;fontColor=#3a414a;spacing=3.8;strokeOpacity=0;fillOpacity=0;rounded=1;absoluteArcSize=1;arcSize=9;fillColor=#ffffff;strokeWidth=0.8;lucidId=wNi0.tQglK~V;" parent="1" vertex="1">
          <mxGeometry x="419" y="232" width="60" height="32" as="geometry" />
        </mxCell>
        <mxCell id="h8Ty44yPj9Jnduj1fUJp-22" value="抽屉" style="html=1;overflow=block;blockSpacing=1;whiteSpace=wrap;fontSize=16.7;fontFamily=Liberation Serif;fontColor=#3a414a;spacing=3.8;strokeOpacity=0;fillOpacity=0;rounded=1;absoluteArcSize=1;arcSize=9;fillColor=#ffffff;strokeWidth=0.8;lucidId=DNi0NaYzkDp5;" parent="1" vertex="1">
          <mxGeometry x="391" y="365" width="59" height="32" as="geometry" />
        </mxCell>
        <mxCell id="h8Ty44yPj9Jnduj1fUJp-23" value="抽屉" style="html=1;overflow=block;blockSpacing=1;whiteSpace=wrap;fontSize=16.7;fontFamily=Liberation Serif;fontColor=#3a414a;spacing=3.8;strokeOpacity=0;fillOpacity=0;rounded=1;absoluteArcSize=1;arcSize=9;fillColor=#ffffff;strokeWidth=0.8;lucidId=QNi0hCo5XsVk;" parent="1" vertex="1">
          <mxGeometry x="391" y="403" width="59" height="32" as="geometry" />
        </mxCell>
        <mxCell id="h8Ty44yPj9Jnduj1fUJp-24" value="抽屉" style="html=1;overflow=block;blockSpacing=1;whiteSpace=wrap;fontSize=16.7;fontFamily=Liberation Serif;fontColor=#3a414a;spacing=3.8;strokeOpacity=0;fillOpacity=0;rounded=1;absoluteArcSize=1;arcSize=9;fillColor=#ffffff;strokeWidth=0.8;lucidId=VNi03hRZ3R9b;" parent="1" vertex="1">
          <mxGeometry x="390" y="448" width="59" height="32" as="geometry" />
        </mxCell>
        <mxCell id="h8Ty44yPj9Jnduj1fUJp-25" value="木门" style="html=1;overflow=block;blockSpacing=1;whiteSpace=wrap;fontSize=16.7;fontFamily=Liberation Serif;fontColor=#3a414a;spacing=3.8;strokeOpacity=0;fillOpacity=0;rounded=1;absoluteArcSize=1;arcSize=9;fillColor=#ffffff;strokeWidth=0.8;lucidId=oOi0-1tm124c;" parent="1" vertex="1">
          <mxGeometry x="372" y="139" width="36" height="68" as="geometry" />
        </mxCell>
        <mxCell id="h8Ty44yPj9Jnduj1fUJp-26" value="木门" style="html=1;overflow=block;blockSpacing=1;whiteSpace=wrap;fontSize=16.7;fontFamily=Liberation Serif;fontColor=#3a414a;spacing=3.8;strokeOpacity=0;fillOpacity=0;rounded=1;absoluteArcSize=1;arcSize=9;fillColor=#ffffff;strokeWidth=0.8;lucidId=0Oi0cIhKzK87;" parent="1" vertex="1">
          <mxGeometry x="431" y="139" width="36" height="68" as="geometry" />
        </mxCell>
        <mxCell id="h8Ty44yPj9Jnduj1fUJp-27" value="木门" style="html=1;overflow=block;blockSpacing=1;whiteSpace=wrap;fontSize=16.7;fontFamily=Liberation Serif;fontColor=#3a414a;spacing=3.8;strokeOpacity=0;fillOpacity=0;rounded=1;absoluteArcSize=1;arcSize=9;fillColor=#ffffff;strokeWidth=0.8;lucidId=3Oi0yuzJIRUg;" parent="1" vertex="1">
          <mxGeometry x="492" y="139" width="36" height="68" as="geometry" />
        </mxCell>
        <mxCell id="h8Ty44yPj9Jnduj1fUJp-28" value="木门" style="html=1;overflow=block;blockSpacing=1;whiteSpace=wrap;fontSize=16.7;fontFamily=Liberation Serif;fontColor=#3a414a;spacing=3.8;strokeOpacity=0;fillOpacity=0;rounded=1;absoluteArcSize=1;arcSize=9;fillColor=#ffffff;strokeWidth=0.8;lucidId=7Oi0QBY3zsmU;" parent="1" vertex="1">
          <mxGeometry x="553" y="139" width="36" height="68" as="geometry" />
        </mxCell>
        <mxCell id="h8Ty44yPj9Jnduj1fUJp-29" value="木门" style="html=1;overflow=block;blockSpacing=1;whiteSpace=wrap;fontSize=16.7;fontFamily=Liberation Serif;fontColor=#3a414a;spacing=3.8;strokeOpacity=0;fillOpacity=0;rounded=1;absoluteArcSize=1;arcSize=9;fillColor=#ffffff;strokeWidth=0.8;lucidId=_Oi0N1qLn8s8;" parent="1" vertex="1">
          <mxGeometry x="613" y="139" width="36" height="68" as="geometry" />
        </mxCell>
        <mxCell id="h8Ty44yPj9Jnduj1fUJp-30" value="木门" style="html=1;overflow=block;blockSpacing=1;whiteSpace=wrap;fontSize=16.7;fontFamily=Liberation Serif;fontColor=#3a414a;spacing=3.8;strokeOpacity=0;fillOpacity=0;rounded=1;absoluteArcSize=1;arcSize=9;fillColor=#ffffff;strokeWidth=0.8;lucidId=aPi0k1yPTDtP;" parent="1" vertex="1">
          <mxGeometry x="490" y="384" width="36" height="68" as="geometry" />
        </mxCell>
        <mxCell id="h8Ty44yPj9Jnduj1fUJp-31" value="木门" style="html=1;overflow=block;blockSpacing=1;whiteSpace=wrap;fontSize=16.7;fontFamily=Liberation Serif;fontColor=#3a414a;spacing=3.8;strokeOpacity=0;fillOpacity=0;rounded=1;absoluteArcSize=1;arcSize=9;fillColor=#ffffff;strokeWidth=0.8;lucidId=cPi0AP5BYbA6;" parent="1" vertex="1">
          <mxGeometry x="552" y="380" width="36" height="68" as="geometry" />
        </mxCell>
        <mxCell id="h8Ty44yPj9Jnduj1fUJp-32" value="木门" style="html=1;overflow=block;blockSpacing=1;whiteSpace=wrap;fontSize=16.7;fontFamily=Liberation Serif;fontColor=#3a414a;spacing=3.8;strokeOpacity=0;fillOpacity=0;rounded=1;absoluteArcSize=1;arcSize=9;fillColor=#ffffff;strokeWidth=0.8;lucidId=gPi0RkHJloOo;" parent="1" vertex="1">
          <mxGeometry x="613" y="380" width="36" height="68" as="geometry" />
        </mxCell>
        <mxCell id="h8Ty44yPj9Jnduj1fUJp-33" value="木门" style="html=1;overflow=block;blockSpacing=1;whiteSpace=wrap;fontSize=16.7;fontFamily=Liberation Serif;fontColor=#3a414a;spacing=3.8;strokeOpacity=0;fillOpacity=0;rounded=1;absoluteArcSize=1;arcSize=9;fillColor=#ffffff;strokeWidth=0.8;lucidId=jPi0uUfH4QKP;" parent="1" vertex="1">
          <mxGeometry x="671" y="271" width="36" height="68" as="geometry" />
        </mxCell>
        <mxCell id="h8Ty44yPj9Jnduj1fUJp-35" value="" style="html=1;overflow=block;blockSpacing=1;whiteSpace=wrap;fontSize=13;spacing=0;strokeColor=#3a414a;strokeOpacity=100;rounded=1;absoluteArcSize=1;arcSize=9;rotation=-270;strokeWidth=0.8;lucidId=pYi01Wcm_DJU;" parent="1" vertex="1">
          <mxGeometry x="720" y="299" width="360" height="1" as="geometry" />
        </mxCell>
        <mxCell id="h8Ty44yPj9Jnduj1fUJp-36" value="" style="html=1;overflow=block;blockSpacing=1;whiteSpace=wrap;fontSize=13;spacing=0;strokeColor=#3a414a;strokeOpacity=100;rounded=1;absoluteArcSize=1;arcSize=9;rotation=-270;strokeWidth=0.8;lucidId=HYi0mSDJBLfM;" parent="1" vertex="1">
          <mxGeometry x="1080" y="299" width="360" height="1" as="geometry" />
        </mxCell>
        <mxCell id="h8Ty44yPj9Jnduj1fUJp-37" value="" style="html=1;overflow=block;blockSpacing=1;whiteSpace=wrap;fontSize=13;spacing=0;strokeColor=#3a414a;strokeOpacity=100;rounded=1;absoluteArcSize=1;arcSize=9;rotation=-270;strokeWidth=0.8;lucidId=TYi0H.dPuJqK;" parent="1" vertex="1">
          <mxGeometry x="960" y="300" width="360" height="1" as="geometry" />
        </mxCell>
        <mxCell id="h8Ty44yPj9Jnduj1fUJp-38" value="" style="html=1;overflow=block;blockSpacing=1;whiteSpace=wrap;fontSize=13;spacing=0;strokeColor=#3a414a;strokeOpacity=100;rounded=1;absoluteArcSize=1;arcSize=9;rotation=-270;strokeWidth=0.8;lucidId=TYi0FkCOCjd8;" parent="1" vertex="1">
          <mxGeometry x="1020" y="299" width="360" height="1" as="geometry" />
        </mxCell>
        <mxCell id="h8Ty44yPj9Jnduj1fUJp-39" value="" style="html=1;overflow=block;blockSpacing=1;whiteSpace=wrap;fontSize=13;spacing=0;strokeColor=#3a414a;strokeOpacity=100;rounded=1;absoluteArcSize=1;arcSize=9;rotation=-270;strokeWidth=0.8;lucidId=9Zi0gIOHBx_o;" parent="1" vertex="1">
          <mxGeometry x="795" y="299" width="360" height="1" as="geometry" />
        </mxCell>
        <mxCell id="h8Ty44yPj9Jnduj1fUJp-40" value="" style="html=1;overflow=block;blockSpacing=1;whiteSpace=wrap;fontSize=13;spacing=0;strokeColor=#3a414a;strokeOpacity=100;rounded=1;absoluteArcSize=1;arcSize=9;rotation=-270;strokeWidth=0.8;lucidId=e0i04zI7K4tB;" parent="1" vertex="1">
          <mxGeometry x="986" y="192" width="142" height="1" as="geometry" />
        </mxCell>
        <mxCell id="h8Ty44yPj9Jnduj1fUJp-41" value="" style="html=1;overflow=block;blockSpacing=1;whiteSpace=wrap;fontSize=13;spacing=0;strokeColor=#3a414a;strokeOpacity=100;rounded=1;absoluteArcSize=1;arcSize=9;strokeWidth=0.8;lucidId=g0i0GwYR5VV3;" parent="1" vertex="1">
          <mxGeometry x="901" y="359" width="239" height="1" as="geometry" />
        </mxCell>
        <mxCell id="h8Ty44yPj9Jnduj1fUJp-42" value="" style="html=1;overflow=block;blockSpacing=1;whiteSpace=wrap;fontSize=13;spacing=0;strokeColor=#3a414a;strokeOpacity=100;rounded=1;absoluteArcSize=1;arcSize=9;strokeWidth=0.8;lucidId=00i0r0cdF_fl;" parent="1" vertex="1">
          <mxGeometry x="975" y="262" width="164" height="1" as="geometry" />
        </mxCell>
        <mxCell id="h8Ty44yPj9Jnduj1fUJp-43" value="" style="html=1;overflow=block;blockSpacing=1;whiteSpace=wrap;fontSize=13;spacing=0;strokeColor=#3a414a;strokeOpacity=100;rounded=1;absoluteArcSize=1;arcSize=9;rotation=-270;strokeWidth=0.8;lucidId=61i0wlTPoXCs;" parent="1" vertex="1">
          <mxGeometry x="997" y="420" width="120" height="1" as="geometry" />
        </mxCell>
        <mxCell id="h8Ty44yPj9Jnduj1fUJp-44" value="" style="html=1;overflow=block;blockSpacing=1;whiteSpace=wrap;fontSize=13;spacing=0;strokeColor=#3a414a;strokeOpacity=100;rounded=1;absoluteArcSize=1;arcSize=9;strokeWidth=0.8;lucidId=X2i0GB5-I0CL;" parent="1" vertex="1">
          <mxGeometry x="975" y="311" width="166" height="1" as="geometry" />
        </mxCell>
        <mxCell id="h8Ty44yPj9Jnduj1fUJp-45" value="木门" style="html=1;overflow=block;blockSpacing=1;whiteSpace=wrap;fontSize=16.7;fontFamily=Liberation Serif;fontColor=#3a414a;spacing=3.8;strokeOpacity=0;fillOpacity=0;rounded=1;absoluteArcSize=1;arcSize=9;fillColor=#ffffff;strokeWidth=0.8;lucidId=23i0FxjOXLHW;" parent="1" vertex="1">
          <mxGeometry x="1209" y="279" width="36" height="68" as="geometry" />
        </mxCell>
        <mxCell id="h8Ty44yPj9Jnduj1fUJp-46" value="木门" style="html=1;overflow=block;blockSpacing=1;whiteSpace=wrap;fontSize=16.7;fontFamily=Liberation Serif;fontColor=#3a414a;spacing=3.8;strokeOpacity=0;fillOpacity=0;rounded=1;absoluteArcSize=1;arcSize=9;fillColor=#ffffff;strokeWidth=0.8;lucidId=33i0lHx0hcYN;" parent="1" vertex="1">
          <mxGeometry x="1275" y="277" width="36" height="68" as="geometry" />
        </mxCell>
        <mxCell id="h8Ty44yPj9Jnduj1fUJp-47" value="木门" style="html=1;overflow=block;blockSpacing=1;whiteSpace=wrap;fontSize=16.7;fontFamily=Liberation Serif;fontColor=#3a414a;spacing=3.8;strokeOpacity=0;fillOpacity=0;rounded=1;absoluteArcSize=1;arcSize=9;fillColor=#ffffff;strokeWidth=0.8;lucidId=e4i0dogeUMoY;" parent="1" vertex="1">
          <mxGeometry x="851" y="277" width="36" height="68" as="geometry" />
        </mxCell>
        <mxCell id="h8Ty44yPj9Jnduj1fUJp-48" value="木门" style="html=1;overflow=block;blockSpacing=1;whiteSpace=wrap;fontSize=16.7;fontFamily=Liberation Serif;fontColor=#3a414a;spacing=3.8;strokeOpacity=0;fillOpacity=0;rounded=1;absoluteArcSize=1;arcSize=9;fillColor=#ffffff;strokeWidth=0.8;lucidId=F4i0GxDi6p5B;" parent="1" vertex="1">
          <mxGeometry x="1002" y="153" width="36" height="68" as="geometry" />
        </mxCell>
        <mxCell id="h8Ty44yPj9Jnduj1fUJp-49" value="木门" style="html=1;overflow=block;blockSpacing=1;whiteSpace=wrap;fontSize=16.7;fontFamily=Liberation Serif;fontColor=#3a414a;spacing=3.8;strokeOpacity=0;fillOpacity=0;rounded=1;absoluteArcSize=1;arcSize=9;fillColor=#ffffff;strokeWidth=0.8;lucidId=J4i0gXuu4hpe;" parent="1" vertex="1">
          <mxGeometry x="1081" y="153" width="36" height="68" as="geometry" />
        </mxCell>
        <mxCell id="h8Ty44yPj9Jnduj1fUJp-50" value="木门" style="html=1;overflow=block;blockSpacing=1;whiteSpace=wrap;fontSize=16.7;fontFamily=Liberation Serif;fontColor=#3a414a;spacing=3.8;strokeOpacity=0;fillOpacity=0;rounded=1;absoluteArcSize=1;arcSize=9;fillColor=#ffffff;strokeWidth=0.8;lucidId=O4i04KpyYti-;" parent="1" vertex="1">
          <mxGeometry x="1001" y="391" width="36" height="68" as="geometry" />
        </mxCell>
        <mxCell id="h8Ty44yPj9Jnduj1fUJp-51" value="木门" style="html=1;overflow=block;blockSpacing=1;whiteSpace=wrap;fontSize=16.7;fontFamily=Liberation Serif;fontColor=#3a414a;spacing=3.8;strokeOpacity=0;fillOpacity=0;rounded=1;absoluteArcSize=1;arcSize=9;fillColor=#ffffff;strokeWidth=0.8;lucidId=Q4i0RmJRj~4-;" parent="1" vertex="1">
          <mxGeometry x="1081" y="386" width="36" height="68" as="geometry" />
        </mxCell>
        <mxCell id="h8Ty44yPj9Jnduj1fUJp-52" value="开放格" style="html=1;overflow=block;blockSpacing=1;whiteSpace=wrap;fontSize=16.7;fontFamily=Liberation Serif;fontColor=#3a414a;spacing=3.8;strokeOpacity=0;fillOpacity=0;rounded=1;absoluteArcSize=1;arcSize=9;fillColor=#ffffff;strokeWidth=0.8;lucidId=44i02NKUE6WC;" parent="1" vertex="1">
          <mxGeometry x="910" y="247" width="60" height="32" as="geometry" />
        </mxCell>
        <mxCell id="h8Ty44yPj9Jnduj1fUJp-53" value="开放格" style="html=1;overflow=block;blockSpacing=1;whiteSpace=wrap;fontSize=16.7;fontFamily=Liberation Serif;fontColor=#3a414a;spacing=3.8;strokeOpacity=0;fillOpacity=0;rounded=1;absoluteArcSize=1;arcSize=9;fillColor=#ffffff;strokeWidth=0.8;lucidId=64i0MKdIgCoz;" parent="1" vertex="1">
          <mxGeometry x="908" y="402" width="60" height="32" as="geometry" />
        </mxCell>
        <mxCell id="h8Ty44yPj9Jnduj1fUJp-54" value="书格" style="html=1;overflow=block;blockSpacing=1;whiteSpace=wrap;fontSize=16.7;fontFamily=Liberation Serif;fontColor=#3a414a;spacing=3.8;strokeOpacity=0;fillOpacity=0;rounded=1;absoluteArcSize=1;arcSize=9;fillColor=#ffffff;strokeWidth=0.8;lucidId=94i0RHY7x~cG;" parent="1" vertex="1">
          <mxGeometry x="1028" y="312" width="60" height="48" as="geometry" />
        </mxCell>
        <mxCell id="h8Ty44yPj9Jnduj1fUJp-55" value="玻璃" style="html=1;overflow=block;blockSpacing=1;whiteSpace=wrap;fontSize=16.7;fontFamily=Liberation Serif;fontColor=#3a414a;spacing=3.8;strokeOpacity=0;fillOpacity=0;rounded=1;absoluteArcSize=1;arcSize=9;fillColor=#ffffff;strokeWidth=0.8;lucidId=i5i03-JM4hYG;" parent="1" vertex="1">
          <mxGeometry x="1155" y="289" width="30" height="45" as="geometry" />
        </mxCell>
        <mxCell id="h8Ty44yPj9Jnduj1fUJp-56" value="" style="html=1;overflow=block;blockSpacing=1;whiteSpace=wrap;ellipse;fontSize=13;spacing=3.8;strokeColor=#3a414a;strokeOpacity=100;rounded=1;absoluteArcSize=1;arcSize=9;strokeWidth=0.8;lucidId=R5i0aFgvN-mq;" parent="1" vertex="1">
          <mxGeometry x="933" y="458" width="10" height="10" as="geometry" />
        </mxCell>
        <mxCell id="h8Ty44yPj9Jnduj1fUJp-57" value="书格" style="html=1;overflow=block;blockSpacing=1;whiteSpace=wrap;fontSize=16.7;fontFamily=Liberation Serif;fontColor=#3a414a;spacing=3.8;strokeOpacity=0;fillOpacity=0;rounded=1;absoluteArcSize=1;arcSize=9;fillColor=#ffffff;strokeWidth=0.8;lucidId=-6i0bXHerErI;" parent="1" vertex="1">
          <mxGeometry x="1025" y="265" width="60" height="48" as="geometry" />
        </mxCell>
        <mxCell id="h8Ty44yPj9Jnduj1fUJp-58" value="餐边柜" style="html=1;overflow=block;blockSpacing=1;whiteSpace=wrap;fontSize=16.7;fontFamily=Liberation Serif;fontColor=#3a414a;spacing=3.8;strokeOpacity=0;fillOpacity=0;rounded=1;absoluteArcSize=1;arcSize=9;fillColor=#ffffff;strokeWidth=0.8;lucidId=A_i0d9Y~pL3e;" parent="1" vertex="1">
          <mxGeometry x="390" y="60" width="180" height="45" as="geometry" />
        </mxCell>
        <mxCell id="h8Ty44yPj9Jnduj1fUJp-59" value="展示柜" style="html=1;overflow=block;blockSpacing=1;whiteSpace=wrap;fontSize=16.7;fontFamily=Liberation Serif;fontColor=#3a414a;spacing=3.8;strokeOpacity=0;fillOpacity=0;rounded=1;absoluteArcSize=1;arcSize=9;fillColor=#ffffff;strokeWidth=0.8;lucidId=1_i0xvrjxDT6;" parent="1" vertex="1">
          <mxGeometry x="990" y="60" width="180" height="45" as="geometry" />
        </mxCell>
        <mxCell id="h8Ty44yPj9Jnduj1fUJp-60" value="" style="html=1;overflow=block;blockSpacing=1;whiteSpace=wrap;fontSize=13;spacing=0;strokeColor=#3a414a;strokeOpacity=100;rounded=1;absoluteArcSize=1;arcSize=9;strokeWidth=0.8;lucidId=~ej0_mkQQ0V_;" parent="1" vertex="1">
          <mxGeometry x="841" y="180" width="59" height="1" as="geometry" />
        </mxCell>
        <mxCell id="h8Ty44yPj9Jnduj1fUJp-61" value="监控格" style="html=1;overflow=block;blockSpacing=1;whiteSpace=wrap;fontSize=16.7;fontFamily=Liberation Serif;fontColor=#3a414a;spacing=3.8;strokeOpacity=0;fillOpacity=0;rounded=1;absoluteArcSize=1;arcSize=9;fillColor=#ffffff;strokeWidth=0.8;lucidId=ofj0eJ.LlK7k;" parent="1" vertex="1">
          <mxGeometry x="839" y="139" width="60" height="32" as="geometry" />
        </mxCell>
        <mxCell id="h8Ty44yPj9Jnduj1fUJp-62" value="管线机" style="html=1;overflow=block;blockSpacing=1;whiteSpace=wrap;fontSize=16.7;fontFamily=Liberation Serif;fontColor=#3a414a;spacing=9;strokeColor=#3a414a;strokeOpacity=100;rounded=1;absoluteArcSize=1;arcSize=9;strokeWidth=0.8;lucidId=ZZj01xy9Xnap;" parent="1" vertex="1">
          <mxGeometry x="602" y="276" width="43" height="78" as="geometry" />
        </mxCell>
        <mxCell id="h8Ty44yPj9Jnduj1fUJp-64" value="" style="html=1;overflow=block;blockSpacing=1;whiteSpace=wrap;fontSize=13;spacing=0;strokeColor=#4c535d;strokeOpacity=100;rounded=1;absoluteArcSize=1;arcSize=9;rotation=-270;strokeWidth=0.8;lucidId=78j0znY7FxWN;" parent="1" vertex="1">
          <mxGeometry x="120" y="720" width="360" height="1" as="geometry" />
        </mxCell>
        <mxCell id="h8Ty44yPj9Jnduj1fUJp-65" value="" style="html=1;overflow=block;blockSpacing=1;whiteSpace=wrap;fontSize=13;spacing=0;strokeColor=#3a414a;strokeOpacity=100;rounded=1;absoluteArcSize=1;arcSize=9;rotation=-270;strokeWidth=0.8;lucidId=78j0HqFUy~2o;" parent="1" vertex="1">
          <mxGeometry x="180" y="720" width="360" height="1" as="geometry" />
        </mxCell>
        <mxCell id="h8Ty44yPj9Jnduj1fUJp-66" value="" style="html=1;overflow=block;blockSpacing=1;whiteSpace=wrap;fontSize=13;spacing=0;strokeColor=#3a414a;strokeOpacity=100;rounded=1;absoluteArcSize=1;arcSize=9;strokeWidth=0.8;lucidId=78j0aC8yOTyB;" parent="1" vertex="1">
          <mxGeometry x="360" y="780" width="300" height="1" as="geometry" />
        </mxCell>
        <mxCell id="h8Ty44yPj9Jnduj1fUJp-67" value="" style="html=1;overflow=block;blockSpacing=1;whiteSpace=wrap;fontSize=13;spacing=0;strokeColor=#3a414a;strokeOpacity=100;rounded=1;absoluteArcSize=1;arcSize=9;rotation=-270;strokeWidth=0.8;lucidId=78j0KuKO8~hy;" parent="1" vertex="1">
          <mxGeometry x="480" y="720" width="360" height="1" as="geometry" />
        </mxCell>
        <mxCell id="h8Ty44yPj9Jnduj1fUJp-68" value="" style="html=1;overflow=block;blockSpacing=1;whiteSpace=wrap;fontSize=13;spacing=0;strokeColor=#3a414a;strokeOpacity=100;rounded=1;absoluteArcSize=1;arcSize=9;rotation=-270;strokeWidth=0.8;lucidId=78j0DSnzvuh2;" parent="1" vertex="1">
          <mxGeometry x="450" y="840" width="120" height="1" as="geometry" />
        </mxCell>
        <mxCell id="h8Ty44yPj9Jnduj1fUJp-69" value="" style="html=1;overflow=block;blockSpacing=1;whiteSpace=wrap;fontSize=13;spacing=0;strokeColor=#3a414a;strokeOpacity=100;rounded=1;absoluteArcSize=1;arcSize=9;strokeWidth=0.8;lucidId=78j0DnPAGFlL;" parent="1" vertex="1">
          <mxGeometry x="360" y="817" width="300" height="1" as="geometry" />
        </mxCell>
        <mxCell id="h8Ty44yPj9Jnduj1fUJp-70" value="" style="html=1;overflow=block;blockSpacing=1;whiteSpace=wrap;fontSize=13;spacing=0;strokeColor=#3a414a;strokeOpacity=100;rounded=1;absoluteArcSize=1;arcSize=9;strokeWidth=0.8;lucidId=78j056YzdsZF;" parent="1" vertex="1">
          <mxGeometry x="360" y="690" width="299" height="1" as="geometry" />
        </mxCell>
        <mxCell id="h8Ty44yPj9Jnduj1fUJp-71" value="" style="html=1;overflow=block;blockSpacing=1;whiteSpace=wrap;fontSize=13;spacing=0;strokeColor=#3a414a;strokeOpacity=100;rounded=1;absoluteArcSize=1;arcSize=9;rotation=-270;strokeWidth=0.8;lucidId=78j0LQltLPrB;" parent="1" vertex="1">
          <mxGeometry x="510" y="615" width="150" height="1" as="geometry" />
        </mxCell>
        <mxCell id="h8Ty44yPj9Jnduj1fUJp-72" value="" style="html=1;overflow=block;blockSpacing=1;whiteSpace=wrap;fontSize=13;spacing=0;strokeColor=#3a414a;strokeOpacity=100;rounded=1;absoluteArcSize=1;arcSize=9;rotation=-270;strokeWidth=0.8;lucidId=78j0PP.9gxyc;" parent="1" vertex="1">
          <mxGeometry x="436" y="615" width="150" height="1" as="geometry" />
        </mxCell>
        <mxCell id="h8Ty44yPj9Jnduj1fUJp-73" value="" style="html=1;overflow=block;blockSpacing=1;whiteSpace=wrap;fontSize=13;spacing=0;strokeColor=#3a414a;strokeOpacity=100;rounded=1;absoluteArcSize=1;arcSize=9;strokeWidth=0.8;lucidId=78j0MgP-4kiy;" parent="1" vertex="1">
          <mxGeometry x="360" y="645" width="150" height="1" as="geometry" />
        </mxCell>
        <mxCell id="h8Ty44yPj9Jnduj1fUJp-74" value="" style="html=1;overflow=block;blockSpacing=1;whiteSpace=wrap;fontSize=13;spacing=0;strokeColor=#3a414a;strokeOpacity=100;rounded=1;absoluteArcSize=1;arcSize=9;rotation=-270;strokeWidth=0.8;lucidId=78j03AIaDtND;" parent="1" vertex="1">
          <mxGeometry x="384" y="592" width="105" height="1" as="geometry" />
        </mxCell>
        <mxCell id="h8Ty44yPj9Jnduj1fUJp-75" value="" style="html=1;overflow=block;blockSpacing=1;whiteSpace=wrap;fontSize=16.7;fontFamily=Liberation Serif;fontColor=#3a414a;spacing=9;strokeColor=#3a414a;strokeOpacity=100;rounded=1;absoluteArcSize=1;arcSize=9;strokeWidth=0.8;lucidId=78j0y2~690fx;" parent="1" vertex="1">
          <mxGeometry x="495" y="728" width="77" height="6" as="geometry" />
        </mxCell>
        <mxCell id="h8Ty44yPj9Jnduj1fUJp-76" value="开放格" style="html=1;overflow=block;blockSpacing=1;whiteSpace=wrap;fontSize=16.7;fontFamily=Liberation Serif;fontColor=#3a414a;spacing=3.8;strokeOpacity=0;fillOpacity=0;rounded=1;absoluteArcSize=1;arcSize=9;fillColor=#ffffff;strokeWidth=0.8;lucidId=78j0cXOXTWDt;" parent="1" vertex="1">
          <mxGeometry x="421" y="716" width="60" height="32" as="geometry" />
        </mxCell>
        <mxCell id="h8Ty44yPj9Jnduj1fUJp-77" value="玻璃" style="html=1;overflow=block;blockSpacing=1;whiteSpace=wrap;fontSize=16.7;fontFamily=Liberation Serif;fontColor=#3a414a;spacing=3.8;strokeOpacity=0;fillOpacity=0;rounded=1;absoluteArcSize=1;arcSize=9;fillColor=#ffffff;strokeWidth=0.8;lucidId=78j0fuFtyf3H;" parent="1" vertex="1">
          <mxGeometry x="255" y="697" width="30" height="45" as="geometry" />
        </mxCell>
        <mxCell id="h8Ty44yPj9Jnduj1fUJp-78" value="玻璃" style="html=1;overflow=block;blockSpacing=1;whiteSpace=wrap;fontSize=16.7;fontFamily=Liberation Serif;fontColor=#3a414a;spacing=3.8;strokeOpacity=0;fillOpacity=0;rounded=1;absoluteArcSize=1;arcSize=9;fillColor=#ffffff;strokeWidth=0.8;lucidId=78j0a9U8_6mh;" parent="1" vertex="1">
          <mxGeometry x="318" y="697" width="30" height="45" as="geometry" />
        </mxCell>
        <mxCell id="h8Ty44yPj9Jnduj1fUJp-79" value="开放格" style="html=1;overflow=block;blockSpacing=1;whiteSpace=wrap;fontSize=16.7;fontFamily=Liberation Serif;fontColor=#3a414a;spacing=3.8;strokeOpacity=0;fillOpacity=0;rounded=1;absoluteArcSize=1;arcSize=9;fillColor=#ffffff;strokeWidth=0.8;lucidId=78j0N6d5NNPW;" parent="1" vertex="1">
          <mxGeometry x="405" y="652" width="60" height="32" as="geometry" />
        </mxCell>
        <mxCell id="h8Ty44yPj9Jnduj1fUJp-80" value="抽屉" style="html=1;overflow=block;blockSpacing=1;whiteSpace=wrap;fontSize=16.7;fontFamily=Liberation Serif;fontColor=#3a414a;spacing=3.8;strokeOpacity=0;fillOpacity=0;rounded=1;absoluteArcSize=1;arcSize=9;fillColor=#ffffff;strokeWidth=0.8;lucidId=78j0GArlnWAF;" parent="1" vertex="1">
          <mxGeometry x="406" y="786" width="59" height="32" as="geometry" />
        </mxCell>
        <mxCell id="h8Ty44yPj9Jnduj1fUJp-81" value="木门" style="html=1;overflow=block;blockSpacing=1;whiteSpace=wrap;fontSize=16.7;fontFamily=Liberation Serif;fontColor=#3a414a;spacing=3.8;strokeOpacity=0;fillOpacity=0;rounded=1;absoluteArcSize=1;arcSize=9;fillColor=#ffffff;strokeWidth=0.8;lucidId=78j0XDk8oHgG;" parent="1" vertex="1">
          <mxGeometry x="383" y="825" width="36" height="68" as="geometry" />
        </mxCell>
        <mxCell id="h8Ty44yPj9Jnduj1fUJp-82" value="木门" style="html=1;overflow=block;blockSpacing=1;whiteSpace=wrap;fontSize=16.7;fontFamily=Liberation Serif;fontColor=#3a414a;spacing=3.8;strokeOpacity=0;fillOpacity=0;rounded=1;absoluteArcSize=1;arcSize=9;fillColor=#ffffff;strokeWidth=0.8;lucidId=78j0cDeucNqy;" parent="1" vertex="1">
          <mxGeometry x="455" y="825" width="36" height="68" as="geometry" />
        </mxCell>
        <mxCell id="h8Ty44yPj9Jnduj1fUJp-83" value="木门" style="html=1;overflow=block;blockSpacing=1;whiteSpace=wrap;fontSize=16.7;fontFamily=Liberation Serif;fontColor=#3a414a;spacing=3.8;strokeOpacity=0;fillOpacity=0;rounded=1;absoluteArcSize=1;arcSize=9;fillColor=#ffffff;strokeWidth=0.8;lucidId=78j0O_OUolZp;" parent="1" vertex="1">
          <mxGeometry x="535" y="825" width="36" height="68" as="geometry" />
        </mxCell>
        <mxCell id="h8Ty44yPj9Jnduj1fUJp-84" value="木门" style="html=1;overflow=block;blockSpacing=1;whiteSpace=wrap;fontSize=16.7;fontFamily=Liberation Serif;fontColor=#3a414a;spacing=3.8;strokeOpacity=0;fillOpacity=0;rounded=1;absoluteArcSize=1;arcSize=9;fillColor=#ffffff;strokeWidth=0.8;lucidId=78j0jYlx3RDS;" parent="1" vertex="1">
          <mxGeometry x="671" y="691" width="36" height="68" as="geometry" />
        </mxCell>
        <mxCell id="h8Ty44yPj9Jnduj1fUJp-85" value="管线机" style="html=1;overflow=block;blockSpacing=1;whiteSpace=wrap;fontSize=16.7;fontFamily=Liberation Serif;fontColor=#3a414a;spacing=9;strokeColor=#3a414a;strokeOpacity=100;rounded=1;absoluteArcSize=1;arcSize=9;strokeWidth=0.8;lucidId=78j0FugMk~_K;" parent="1" vertex="1">
          <mxGeometry x="601" y="696" width="43" height="78" as="geometry" />
        </mxCell>
        <mxCell id="h8Ty44yPj9Jnduj1fUJp-86" value="" style="html=1;overflow=block;blockSpacing=1;whiteSpace=wrap;fontSize=13;spacing=0;strokeColor=#3a414a;strokeOpacity=100;rounded=1;absoluteArcSize=1;arcSize=9;rotation=-270;strokeWidth=0.8;lucidId=r-j0WarNuwqQ;" parent="1" vertex="1">
          <mxGeometry x="394" y="858" width="83" height="1" as="geometry" />
        </mxCell>
        <mxCell id="h8Ty44yPj9Jnduj1fUJp-87" value="" style="html=1;overflow=block;blockSpacing=1;whiteSpace=wrap;fontSize=13;spacing=0;strokeColor=#3a414a;strokeOpacity=100;rounded=1;absoluteArcSize=1;arcSize=9;rotation=-270;strokeWidth=0.8;lucidId=I-j0VKn_3-d~;" parent="1" vertex="1">
          <mxGeometry x="546" y="857" width="83" height="1" as="geometry" />
        </mxCell>
        <mxCell id="h8Ty44yPj9Jnduj1fUJp-88" value="抽屉" style="html=1;overflow=block;blockSpacing=1;whiteSpace=wrap;fontSize=16.7;fontFamily=Liberation Serif;fontColor=#3a414a;spacing=3.8;strokeOpacity=0;fillOpacity=0;rounded=1;absoluteArcSize=1;arcSize=9;fillColor=#ffffff;strokeWidth=0.8;lucidId=R-j04yiiHpjt;" parent="1" vertex="1">
          <mxGeometry x="557" y="786" width="59" height="32" as="geometry" />
        </mxCell>
        <mxCell id="h8Ty44yPj9Jnduj1fUJp-89" value="木门" style="html=1;overflow=block;blockSpacing=1;whiteSpace=wrap;fontSize=16.7;fontFamily=Liberation Serif;fontColor=#3a414a;spacing=3.8;strokeOpacity=0;fillOpacity=0;rounded=1;absoluteArcSize=1;arcSize=9;fillColor=#ffffff;strokeWidth=0.8;lucidId=a_j0AN.oHTdA;" parent="1" vertex="1">
          <mxGeometry x="607" y="825" width="36" height="68" as="geometry" />
        </mxCell>
        <mxCell id="h8Ty44yPj9Jnduj1fUJp-90" value="木门" style="html=1;overflow=block;blockSpacing=1;whiteSpace=wrap;fontSize=16.7;fontFamily=Liberation Serif;fontColor=#3a414a;spacing=3.8;strokeOpacity=0;fillOpacity=0;rounded=1;absoluteArcSize=1;arcSize=9;fillColor=#ffffff;strokeWidth=0.8;lucidId=5_j0~FTSx7wC;" parent="1" vertex="1">
          <mxGeometry x="383" y="559" width="36" height="68" as="geometry" />
        </mxCell>
        <mxCell id="h8Ty44yPj9Jnduj1fUJp-91" value="木门" style="html=1;overflow=block;blockSpacing=1;whiteSpace=wrap;fontSize=16.7;fontFamily=Liberation Serif;fontColor=#3a414a;spacing=3.8;strokeOpacity=0;fillOpacity=0;rounded=1;absoluteArcSize=1;arcSize=9;fillColor=#ffffff;strokeWidth=0.8;lucidId=9_j0fHbMRT1.;" parent="1" vertex="1">
          <mxGeometry x="453" y="559" width="36" height="68" as="geometry" />
        </mxCell>
        <mxCell id="h8Ty44yPj9Jnduj1fUJp-92" value="木门" style="html=1;overflow=block;blockSpacing=1;whiteSpace=wrap;fontSize=16.7;fontFamily=Liberation Serif;fontColor=#3a414a;spacing=3.8;strokeOpacity=0;fillOpacity=0;rounded=1;absoluteArcSize=1;arcSize=9;fillColor=#ffffff;strokeWidth=0.8;lucidId=a.j0z1KJeR45;" parent="1" vertex="1">
          <mxGeometry x="530" y="559" width="36" height="68" as="geometry" />
        </mxCell>
        <mxCell id="h8Ty44yPj9Jnduj1fUJp-93" value="木门" style="html=1;overflow=block;blockSpacing=1;whiteSpace=wrap;fontSize=16.7;fontFamily=Liberation Serif;fontColor=#3a414a;spacing=3.8;strokeOpacity=0;fillOpacity=0;rounded=1;absoluteArcSize=1;arcSize=9;fillColor=#ffffff;strokeWidth=0.8;lucidId=f.j0dE7G95~X;" parent="1" vertex="1">
          <mxGeometry x="607" y="559" width="36" height="68" as="geometry" />
        </mxCell>
        <mxCell id="h8Ty44yPj9Jnduj1fUJp-95" value="" style="html=1;overflow=block;blockSpacing=1;whiteSpace=wrap;fontSize=13;spacing=0;strokeColor=#3a414a;strokeOpacity=100;rounded=1;absoluteArcSize=1;arcSize=9;rotation=-270;strokeWidth=0.8;lucidId=q~j0QzNF6iWo;" parent="1" vertex="1">
          <mxGeometry x="720" y="719" width="360" height="1" as="geometry" />
        </mxCell>
        <mxCell id="h8Ty44yPj9Jnduj1fUJp-96" value="" style="html=1;overflow=block;blockSpacing=1;whiteSpace=wrap;fontSize=13;spacing=0;strokeColor=#3a414a;strokeOpacity=100;rounded=1;absoluteArcSize=1;arcSize=9;rotation=-270;strokeWidth=0.8;lucidId=q~j0.NPEutJE;" parent="1" vertex="1">
          <mxGeometry x="1021" y="719" width="360" height="1" as="geometry" />
        </mxCell>
        <mxCell id="h8Ty44yPj9Jnduj1fUJp-97" value="" style="html=1;overflow=block;blockSpacing=1;whiteSpace=wrap;fontSize=13;spacing=0;strokeColor=#3a414a;strokeOpacity=100;rounded=1;absoluteArcSize=1;arcSize=9;rotation=-270;strokeWidth=0.8;lucidId=q~j0yHQ5jfok;" parent="1" vertex="1">
          <mxGeometry x="1081" y="718" width="360" height="1" as="geometry" />
        </mxCell>
        <mxCell id="h8Ty44yPj9Jnduj1fUJp-98" value="" style="html=1;overflow=block;blockSpacing=1;whiteSpace=wrap;fontSize=13;spacing=0;strokeColor=#3a414a;strokeOpacity=100;rounded=1;absoluteArcSize=1;arcSize=9;rotation=-270;strokeWidth=0.8;lucidId=q~j0MXQFPMYa;" parent="1" vertex="1">
          <mxGeometry x="856" y="718" width="360" height="1" as="geometry" />
        </mxCell>
        <mxCell id="h8Ty44yPj9Jnduj1fUJp-99" value="" style="html=1;overflow=block;blockSpacing=1;whiteSpace=wrap;fontSize=13;spacing=0;strokeColor=#3a414a;strokeOpacity=100;rounded=1;absoluteArcSize=1;arcSize=9;rotation=-270;strokeWidth=0.8;lucidId=q~j0vZXPf9qf;" parent="1" vertex="1">
          <mxGeometry x="1047" y="611" width="142" height="1" as="geometry" />
        </mxCell>
        <mxCell id="h8Ty44yPj9Jnduj1fUJp-100" value="" style="html=1;overflow=block;blockSpacing=1;whiteSpace=wrap;fontSize=13;spacing=0;strokeColor=#3a414a;strokeOpacity=100;rounded=1;absoluteArcSize=1;arcSize=9;strokeWidth=0.8;lucidId=q~j0dRgEWSiF;" parent="1" vertex="1">
          <mxGeometry x="1035" y="778" width="166" height="1" as="geometry" />
        </mxCell>
        <mxCell id="h8Ty44yPj9Jnduj1fUJp-101" value="" style="html=1;overflow=block;blockSpacing=1;whiteSpace=wrap;fontSize=13;spacing=0;strokeColor=#3a414a;strokeOpacity=100;rounded=1;absoluteArcSize=1;arcSize=9;strokeWidth=0.8;lucidId=q~j0rom~a3Q-;" parent="1" vertex="1">
          <mxGeometry x="1036" y="681" width="164" height="1" as="geometry" />
        </mxCell>
        <mxCell id="h8Ty44yPj9Jnduj1fUJp-102" value="" style="html=1;overflow=block;blockSpacing=1;whiteSpace=wrap;fontSize=13;spacing=0;strokeColor=#3a414a;strokeOpacity=100;rounded=1;absoluteArcSize=1;arcSize=9;rotation=-270;strokeWidth=0.8;lucidId=q~j0TQI1Con6;" parent="1" vertex="1">
          <mxGeometry x="1058" y="839" width="120" height="1" as="geometry" />
        </mxCell>
        <mxCell id="h8Ty44yPj9Jnduj1fUJp-103" value="" style="html=1;overflow=block;blockSpacing=1;whiteSpace=wrap;fontSize=13;spacing=0;strokeColor=#3a414a;strokeOpacity=100;rounded=1;absoluteArcSize=1;arcSize=9;strokeWidth=0.8;lucidId=q~j0MhV~-YPz;" parent="1" vertex="1">
          <mxGeometry x="1036" y="730" width="166" height="1" as="geometry" />
        </mxCell>
        <mxCell id="h8Ty44yPj9Jnduj1fUJp-104" value="木门" style="html=1;overflow=block;blockSpacing=1;whiteSpace=wrap;fontSize=16.7;fontFamily=Liberation Serif;fontColor=#3a414a;spacing=3.8;strokeOpacity=0;fillOpacity=0;rounded=1;absoluteArcSize=1;arcSize=9;fillColor=#ffffff;strokeWidth=0.8;lucidId=q~j0_5Gr7Ewg;" parent="1" vertex="1">
          <mxGeometry x="1275" y="694" width="36" height="68" as="geometry" />
        </mxCell>
        <mxCell id="h8Ty44yPj9Jnduj1fUJp-105" value="木门" style="html=1;overflow=block;blockSpacing=1;whiteSpace=wrap;fontSize=16.7;fontFamily=Liberation Serif;fontColor=#3a414a;spacing=3.8;strokeOpacity=0;fillOpacity=0;rounded=1;absoluteArcSize=1;arcSize=9;fillColor=#ffffff;strokeWidth=0.8;lucidId=q~j0INW0MIXu;" parent="1" vertex="1">
          <mxGeometry x="852" y="691" width="36" height="68" as="geometry" />
        </mxCell>
        <mxCell id="h8Ty44yPj9Jnduj1fUJp-106" value="木门" style="html=1;overflow=block;blockSpacing=1;whiteSpace=wrap;fontSize=16.7;fontFamily=Liberation Serif;fontColor=#3a414a;spacing=3.8;strokeOpacity=0;fillOpacity=0;rounded=1;absoluteArcSize=1;arcSize=9;fillColor=#ffffff;strokeWidth=0.8;lucidId=q~j0T~efpjM~;" parent="1" vertex="1">
          <mxGeometry x="1063" y="573" width="36" height="68" as="geometry" />
        </mxCell>
        <mxCell id="h8Ty44yPj9Jnduj1fUJp-107" value="木门" style="html=1;overflow=block;blockSpacing=1;whiteSpace=wrap;fontSize=16.7;fontFamily=Liberation Serif;fontColor=#3a414a;spacing=3.8;strokeOpacity=0;fillOpacity=0;rounded=1;absoluteArcSize=1;arcSize=9;fillColor=#ffffff;strokeWidth=0.8;lucidId=q~j08ZvL0_z7;" parent="1" vertex="1">
          <mxGeometry x="1141" y="573" width="36" height="68" as="geometry" />
        </mxCell>
        <mxCell id="h8Ty44yPj9Jnduj1fUJp-108" value="木门" style="html=1;overflow=block;blockSpacing=1;whiteSpace=wrap;fontSize=16.7;fontFamily=Liberation Serif;fontColor=#3a414a;spacing=3.8;strokeOpacity=0;fillOpacity=0;rounded=1;absoluteArcSize=1;arcSize=9;fillColor=#ffffff;strokeWidth=0.8;lucidId=q~j0Y-ddHJU6;" parent="1" vertex="1">
          <mxGeometry x="1062" y="810" width="36" height="68" as="geometry" />
        </mxCell>
        <mxCell id="h8Ty44yPj9Jnduj1fUJp-109" value="木门" style="html=1;overflow=block;blockSpacing=1;whiteSpace=wrap;fontSize=16.7;fontFamily=Liberation Serif;fontColor=#3a414a;spacing=3.8;strokeOpacity=0;fillOpacity=0;rounded=1;absoluteArcSize=1;arcSize=9;fillColor=#ffffff;strokeWidth=0.8;lucidId=q~j0WAZpy_Gr;" parent="1" vertex="1">
          <mxGeometry x="1141" y="805" width="36" height="68" as="geometry" />
        </mxCell>
        <mxCell id="h8Ty44yPj9Jnduj1fUJp-110" value="开放格" style="html=1;overflow=block;blockSpacing=1;whiteSpace=wrap;fontSize=16.7;fontFamily=Liberation Serif;fontColor=#3a414a;spacing=3.8;strokeOpacity=0;fillOpacity=0;rounded=1;absoluteArcSize=1;arcSize=9;fillColor=#ffffff;strokeWidth=0.8;lucidId=q~j0lQPow--5;" parent="1" vertex="1">
          <mxGeometry x="908" y="666" width="60" height="32" as="geometry" />
        </mxCell>
        <mxCell id="h8Ty44yPj9Jnduj1fUJp-111" value="开放格" style="html=1;overflow=block;blockSpacing=1;whiteSpace=wrap;fontSize=16.7;fontFamily=Liberation Serif;fontColor=#3a414a;spacing=3.8;strokeOpacity=0;fillOpacity=0;rounded=1;absoluteArcSize=1;arcSize=9;fillColor=#ffffff;strokeWidth=0.8;lucidId=q~j0ZX9enRbZ;" parent="1" vertex="1">
          <mxGeometry x="909" y="828" width="60" height="32" as="geometry" />
        </mxCell>
        <mxCell id="h8Ty44yPj9Jnduj1fUJp-112" value="书格" style="html=1;overflow=block;blockSpacing=1;whiteSpace=wrap;fontSize=16.7;fontFamily=Liberation Serif;fontColor=#3a414a;spacing=3.8;strokeOpacity=0;fillOpacity=0;rounded=1;absoluteArcSize=1;arcSize=9;fillColor=#ffffff;strokeWidth=0.8;lucidId=q~j0A550hZki;" parent="1" vertex="1">
          <mxGeometry x="1089" y="731" width="60" height="48" as="geometry" />
        </mxCell>
        <mxCell id="h8Ty44yPj9Jnduj1fUJp-113" value="" style="html=1;overflow=block;blockSpacing=1;whiteSpace=wrap;ellipse;fontSize=13;spacing=3.8;strokeColor=#3a414a;strokeOpacity=100;rounded=1;absoluteArcSize=1;arcSize=9;strokeWidth=0.8;lucidId=q~j0ltXFZSEa;" parent="1" vertex="1">
          <mxGeometry x="933" y="880" width="10" height="10" as="geometry" />
        </mxCell>
        <mxCell id="h8Ty44yPj9Jnduj1fUJp-114" value="书格" style="html=1;overflow=block;blockSpacing=1;whiteSpace=wrap;fontSize=16.7;fontFamily=Liberation Serif;fontColor=#3a414a;spacing=3.8;strokeOpacity=0;fillOpacity=0;rounded=1;absoluteArcSize=1;arcSize=9;fillColor=#ffffff;strokeWidth=0.8;lucidId=q~j0so1qh5Ui;" parent="1" vertex="1">
          <mxGeometry x="1085" y="685" width="60" height="48" as="geometry" />
        </mxCell>
        <mxCell id="h8Ty44yPj9Jnduj1fUJp-115" value="" style="html=1;overflow=block;blockSpacing=1;whiteSpace=wrap;fontSize=13;spacing=0;strokeColor=#3a414a;strokeOpacity=100;rounded=1;absoluteArcSize=1;arcSize=9;strokeWidth=0.8;lucidId=q~j0INuo9~R0;" parent="1" vertex="1">
          <mxGeometry x="839" y="600" width="59" height="1" as="geometry" />
        </mxCell>
        <mxCell id="h8Ty44yPj9Jnduj1fUJp-116" value="监控格" style="html=1;overflow=block;blockSpacing=1;whiteSpace=wrap;fontSize=16.7;fontFamily=Liberation Serif;fontColor=#3a414a;spacing=3.8;strokeOpacity=0;fillOpacity=0;rounded=1;absoluteArcSize=1;arcSize=9;fillColor=#ffffff;strokeWidth=0.8;lucidId=q~j0ok_EwQ9j;" parent="1" vertex="1">
          <mxGeometry x="840" y="555" width="60" height="32" as="geometry" />
        </mxCell>
        <mxCell id="h8Ty44yPj9Jnduj1fUJp-117" value="" style="html=1;overflow=block;blockSpacing=1;whiteSpace=wrap;fontSize=13;spacing=0;strokeColor=#3a414a;strokeOpacity=100;rounded=1;absoluteArcSize=1;arcSize=9;rotation=-270;strokeWidth=0.8;lucidId=Oek0cersfiLR;" parent="1" vertex="1">
          <mxGeometry x="795" y="718" width="360" height="1" as="geometry" />
        </mxCell>
        <mxCell id="h8Ty44yPj9Jnduj1fUJp-118" value="玻璃" style="html=1;overflow=block;blockSpacing=1;whiteSpace=wrap;fontSize=16.7;fontFamily=Liberation Serif;fontColor=#3a414a;spacing=3.8;strokeOpacity=0;fillOpacity=0;rounded=1;absoluteArcSize=1;arcSize=9;fillColor=#ffffff;strokeWidth=0.8;lucidId=efk0YbyYQOgD;" parent="1" vertex="1">
          <mxGeometry x="992" y="693" width="30" height="45" as="geometry" />
        </mxCell>
        <mxCell id="h8Ty44yPj9Jnduj1fUJp-119" value="木门" style="html=1;overflow=block;blockSpacing=1;whiteSpace=wrap;fontSize=16.7;fontFamily=Liberation Serif;fontColor=#3a414a;spacing=3.8;strokeOpacity=0;fillOpacity=0;rounded=1;absoluteArcSize=1;arcSize=9;fillColor=#ffffff;strokeWidth=0.8;lucidId=ufk0aXvk7jEk;" parent="1" vertex="1">
          <mxGeometry x="1208" y="694" width="36" height="68" as="geometry" />
        </mxCell>
        <mxCell id="h8Ty44yPj9Jnduj1fUJp-120" value="" style="html=1;overflow=block;blockSpacing=1;whiteSpace=wrap;fontSize=13;spacing=0;strokeColor=#3a414a;strokeOpacity=100;rounded=1;absoluteArcSize=1;arcSize=9;strokeWidth=0.8;lucidId=Pfk0QHJeXBoY;" parent="1" vertex="1">
          <mxGeometry x="900" y="780" width="74" height="1" as="geometry" />
        </mxCell>
        <mxCell id="h8Ty44yPj9Jnduj1fUJp-122" value="" style="html=1;overflow=block;blockSpacing=1;whiteSpace=wrap;fontSize=13;spacing=0;strokeColor=#4c535d;strokeOpacity=100;rounded=1;absoluteArcSize=1;arcSize=9;rotation=-270;strokeWidth=0.8;lucidId=.hk0gwcze3SJ;" parent="1" vertex="1">
          <mxGeometry x="120" y="1140" width="360" height="1" as="geometry" />
        </mxCell>
        <mxCell id="h8Ty44yPj9Jnduj1fUJp-123" value="" style="html=1;overflow=block;blockSpacing=1;whiteSpace=wrap;fontSize=13;spacing=0;strokeColor=#3a414a;strokeOpacity=100;rounded=1;absoluteArcSize=1;arcSize=9;rotation=-270;strokeWidth=0.8;lucidId=.hk0KCxX8zW4;" parent="1" vertex="1">
          <mxGeometry x="180" y="1140" width="360" height="1" as="geometry" />
        </mxCell>
        <mxCell id="h8Ty44yPj9Jnduj1fUJp-124" value="" style="html=1;overflow=block;blockSpacing=1;whiteSpace=wrap;fontSize=13;spacing=0;strokeColor=#3a414a;strokeOpacity=100;rounded=1;absoluteArcSize=1;arcSize=9;strokeWidth=0.8;lucidId=.hk03MTce9~l;" parent="1" vertex="1">
          <mxGeometry x="360" y="1200" width="300" height="1" as="geometry" />
        </mxCell>
        <mxCell id="h8Ty44yPj9Jnduj1fUJp-125" value="" style="html=1;overflow=block;blockSpacing=1;whiteSpace=wrap;fontSize=13;spacing=0;strokeColor=#3a414a;strokeOpacity=100;rounded=1;absoluteArcSize=1;arcSize=9;rotation=-270;strokeWidth=0.8;lucidId=.hk0nhYwJiIB;" parent="1" vertex="1">
          <mxGeometry x="480" y="1140" width="360" height="1" as="geometry" />
        </mxCell>
        <mxCell id="h8Ty44yPj9Jnduj1fUJp-126" value="" style="html=1;overflow=block;blockSpacing=1;whiteSpace=wrap;fontSize=13;spacing=0;strokeColor=#3a414a;strokeOpacity=100;rounded=1;absoluteArcSize=1;arcSize=9;rotation=-270;strokeWidth=0.8;lucidId=.hk0D3vQSxjr;" parent="1" vertex="1">
          <mxGeometry x="450" y="1260" width="120" height="1" as="geometry" />
        </mxCell>
        <mxCell id="h8Ty44yPj9Jnduj1fUJp-127" value="" style="html=1;overflow=block;blockSpacing=1;whiteSpace=wrap;fontSize=13;spacing=0;strokeColor=#3a414a;strokeOpacity=100;rounded=1;absoluteArcSize=1;arcSize=9;strokeWidth=0.8;lucidId=.hk08_j1bp-G;" parent="1" vertex="1">
          <mxGeometry x="360" y="1237" width="300" height="1" as="geometry" />
        </mxCell>
        <mxCell id="h8Ty44yPj9Jnduj1fUJp-128" value="" style="html=1;overflow=block;blockSpacing=1;whiteSpace=wrap;fontSize=13;spacing=0;strokeColor=#3a414a;strokeOpacity=100;rounded=1;absoluteArcSize=1;arcSize=9;strokeWidth=0.8;lucidId=.hk04yY_ld9b;" parent="1" vertex="1">
          <mxGeometry x="360" y="1110" width="299" height="1" as="geometry" />
        </mxCell>
        <mxCell id="h8Ty44yPj9Jnduj1fUJp-129" value="" style="html=1;overflow=block;blockSpacing=1;whiteSpace=wrap;fontSize=13;spacing=0;strokeColor=#3a414a;strokeOpacity=100;rounded=1;absoluteArcSize=1;arcSize=9;rotation=-270;strokeWidth=0.8;lucidId=.hk0rC3t2SsK;" parent="1" vertex="1">
          <mxGeometry x="510" y="1035" width="150" height="1" as="geometry" />
        </mxCell>
        <mxCell id="h8Ty44yPj9Jnduj1fUJp-130" value="" style="html=1;overflow=block;blockSpacing=1;whiteSpace=wrap;fontSize=13;spacing=0;strokeColor=#3a414a;strokeOpacity=100;rounded=1;absoluteArcSize=1;arcSize=9;rotation=-270;strokeWidth=0.8;lucidId=.hk0mTejYEPt;" parent="1" vertex="1">
          <mxGeometry x="436" y="1035" width="150" height="1" as="geometry" />
        </mxCell>
        <mxCell id="h8Ty44yPj9Jnduj1fUJp-131" value="" style="html=1;overflow=block;blockSpacing=1;whiteSpace=wrap;fontSize=13;spacing=0;strokeColor=#3a414a;strokeOpacity=100;rounded=1;absoluteArcSize=1;arcSize=9;strokeWidth=0.8;lucidId=.hk0SDke~~ll;" parent="1" vertex="1">
          <mxGeometry x="360" y="1065" width="150" height="1" as="geometry" />
        </mxCell>
        <mxCell id="h8Ty44yPj9Jnduj1fUJp-132" value="" style="html=1;overflow=block;blockSpacing=1;whiteSpace=wrap;fontSize=13;spacing=0;strokeColor=#3a414a;strokeOpacity=100;rounded=1;absoluteArcSize=1;arcSize=9;rotation=-270;strokeWidth=0.8;lucidId=.hk0aW6NYqQ6;" parent="1" vertex="1">
          <mxGeometry x="384" y="1012" width="105" height="1" as="geometry" />
        </mxCell>
        <mxCell id="h8Ty44yPj9Jnduj1fUJp-133" value="" style="html=1;overflow=block;blockSpacing=1;whiteSpace=wrap;fontSize=16.7;fontFamily=Liberation Serif;fontColor=#3a414a;spacing=9;strokeColor=#3a414a;strokeOpacity=100;rounded=1;absoluteArcSize=1;arcSize=9;strokeWidth=0.8;lucidId=.hk09L6nL1Om;" parent="1" vertex="1">
          <mxGeometry x="495" y="1148" width="77" height="6" as="geometry" />
        </mxCell>
        <mxCell id="h8Ty44yPj9Jnduj1fUJp-134" value="开放格" style="html=1;overflow=block;blockSpacing=1;whiteSpace=wrap;fontSize=16.7;fontFamily=Liberation Serif;fontColor=#3a414a;spacing=3.8;strokeOpacity=0;fillOpacity=0;rounded=1;absoluteArcSize=1;arcSize=9;fillColor=#ffffff;strokeWidth=0.8;lucidId=.hk0DPOqORCi;" parent="1" vertex="1">
          <mxGeometry x="421" y="1136" width="60" height="32" as="geometry" />
        </mxCell>
        <mxCell id="h8Ty44yPj9Jnduj1fUJp-135" value="木门" style="html=1;overflow=block;blockSpacing=1;whiteSpace=wrap;fontSize=16.7;fontFamily=Liberation Serif;fontColor=#3a414a;spacing=3.8;strokeOpacity=0;fillOpacity=0;rounded=1;absoluteArcSize=1;arcSize=9;fillColor=#ffffff;strokeWidth=0.8;lucidId=.hk00FJT-8hq;" parent="1" vertex="1">
          <mxGeometry x="255" y="1120" width="30" height="48" as="geometry" />
        </mxCell>
        <mxCell id="h8Ty44yPj9Jnduj1fUJp-136" value="玻璃" style="html=1;overflow=block;blockSpacing=1;whiteSpace=wrap;fontSize=16.7;fontFamily=Liberation Serif;fontColor=#3a414a;spacing=3.8;strokeOpacity=0;fillOpacity=0;rounded=1;absoluteArcSize=1;arcSize=9;fillColor=#ffffff;strokeWidth=0.8;lucidId=.hk0rSpm13oi;" parent="1" vertex="1">
          <mxGeometry x="318" y="1117" width="30" height="45" as="geometry" />
        </mxCell>
        <mxCell id="h8Ty44yPj9Jnduj1fUJp-137" value="开放格" style="html=1;overflow=block;blockSpacing=1;whiteSpace=wrap;fontSize=16.7;fontFamily=Liberation Serif;fontColor=#3a414a;spacing=3.8;strokeOpacity=0;fillOpacity=0;rounded=1;absoluteArcSize=1;arcSize=9;fillColor=#ffffff;strokeWidth=0.8;lucidId=.hk0V3DdlY9t;" parent="1" vertex="1">
          <mxGeometry x="405" y="1072" width="60" height="32" as="geometry" />
        </mxCell>
        <mxCell id="h8Ty44yPj9Jnduj1fUJp-138" value="抽屉" style="html=1;overflow=block;blockSpacing=1;whiteSpace=wrap;fontSize=16.7;fontFamily=Liberation Serif;fontColor=#3a414a;spacing=3.8;strokeOpacity=0;fillOpacity=0;rounded=1;absoluteArcSize=1;arcSize=9;fillColor=#ffffff;strokeWidth=0.8;lucidId=.hk0v6HsMkEd;" parent="1" vertex="1">
          <mxGeometry x="406" y="1206" width="59" height="32" as="geometry" />
        </mxCell>
        <mxCell id="h8Ty44yPj9Jnduj1fUJp-139" value="木门" style="html=1;overflow=block;blockSpacing=1;whiteSpace=wrap;fontSize=16.7;fontFamily=Liberation Serif;fontColor=#3a414a;spacing=3.8;strokeOpacity=0;fillOpacity=0;rounded=1;absoluteArcSize=1;arcSize=9;fillColor=#ffffff;strokeWidth=0.8;lucidId=.hk0LC2~mbGy;" parent="1" vertex="1">
          <mxGeometry x="383" y="1245" width="36" height="68" as="geometry" />
        </mxCell>
        <mxCell id="h8Ty44yPj9Jnduj1fUJp-140" value="木门" style="html=1;overflow=block;blockSpacing=1;whiteSpace=wrap;fontSize=16.7;fontFamily=Liberation Serif;fontColor=#3a414a;spacing=3.8;strokeOpacity=0;fillOpacity=0;rounded=1;absoluteArcSize=1;arcSize=9;fillColor=#ffffff;strokeWidth=0.8;lucidId=.hk0ifU5~upK;" parent="1" vertex="1">
          <mxGeometry x="455" y="1245" width="36" height="68" as="geometry" />
        </mxCell>
        <mxCell id="h8Ty44yPj9Jnduj1fUJp-141" value="木门" style="html=1;overflow=block;blockSpacing=1;whiteSpace=wrap;fontSize=16.7;fontFamily=Liberation Serif;fontColor=#3a414a;spacing=3.8;strokeOpacity=0;fillOpacity=0;rounded=1;absoluteArcSize=1;arcSize=9;fillColor=#ffffff;strokeWidth=0.8;lucidId=.hk0d1Z.m-mZ;" parent="1" vertex="1">
          <mxGeometry x="535" y="1245" width="36" height="68" as="geometry" />
        </mxCell>
        <mxCell id="h8Ty44yPj9Jnduj1fUJp-142" value="木门" style="html=1;overflow=block;blockSpacing=1;whiteSpace=wrap;fontSize=16.7;fontFamily=Liberation Serif;fontColor=#3a414a;spacing=3.8;strokeOpacity=0;fillOpacity=0;rounded=1;absoluteArcSize=1;arcSize=9;fillColor=#ffffff;strokeWidth=0.8;lucidId=.hk0U1W8_xsd;" parent="1" vertex="1">
          <mxGeometry x="671" y="1110" width="36" height="68" as="geometry" />
        </mxCell>
        <mxCell id="h8Ty44yPj9Jnduj1fUJp-143" value="管线机" style="html=1;overflow=block;blockSpacing=1;whiteSpace=wrap;fontSize=16.7;fontFamily=Liberation Serif;fontColor=#3a414a;spacing=9;strokeColor=#3a414a;strokeOpacity=100;rounded=1;absoluteArcSize=1;arcSize=9;strokeWidth=0.8;lucidId=.hk0gmhFiuE-;" parent="1" vertex="1">
          <mxGeometry x="601" y="1116" width="43" height="78" as="geometry" />
        </mxCell>
        <mxCell id="h8Ty44yPj9Jnduj1fUJp-144" value="" style="html=1;overflow=block;blockSpacing=1;whiteSpace=wrap;fontSize=13;spacing=0;strokeColor=#3a414a;strokeOpacity=100;rounded=1;absoluteArcSize=1;arcSize=9;rotation=-270;strokeWidth=0.8;lucidId=.hk0bpZvJhf~;" parent="1" vertex="1">
          <mxGeometry x="394" y="1278" width="83" height="1" as="geometry" />
        </mxCell>
        <mxCell id="h8Ty44yPj9Jnduj1fUJp-145" value="" style="html=1;overflow=block;blockSpacing=1;whiteSpace=wrap;fontSize=13;spacing=0;strokeColor=#3a414a;strokeOpacity=100;rounded=1;absoluteArcSize=1;arcSize=9;rotation=-270;strokeWidth=0.8;lucidId=.hk0EtVpM0vD;" parent="1" vertex="1">
          <mxGeometry x="546" y="1277" width="83" height="1" as="geometry" />
        </mxCell>
        <mxCell id="h8Ty44yPj9Jnduj1fUJp-146" value="抽屉" style="html=1;overflow=block;blockSpacing=1;whiteSpace=wrap;fontSize=16.7;fontFamily=Liberation Serif;fontColor=#3a414a;spacing=3.8;strokeOpacity=0;fillOpacity=0;rounded=1;absoluteArcSize=1;arcSize=9;fillColor=#ffffff;strokeWidth=0.8;lucidId=.hk0Aq4lsWvD;" parent="1" vertex="1">
          <mxGeometry x="557" y="1206" width="59" height="32" as="geometry" />
        </mxCell>
        <mxCell id="h8Ty44yPj9Jnduj1fUJp-147" value="木门" style="html=1;overflow=block;blockSpacing=1;whiteSpace=wrap;fontSize=16.7;fontFamily=Liberation Serif;fontColor=#3a414a;spacing=3.8;strokeOpacity=0;fillOpacity=0;rounded=1;absoluteArcSize=1;arcSize=9;fillColor=#ffffff;strokeWidth=0.8;lucidId=.hk0v_11dtQF;" parent="1" vertex="1">
          <mxGeometry x="607" y="1245" width="36" height="68" as="geometry" />
        </mxCell>
        <mxCell id="h8Ty44yPj9Jnduj1fUJp-148" value="木门" style="html=1;overflow=block;blockSpacing=1;whiteSpace=wrap;fontSize=16.7;fontFamily=Liberation Serif;fontColor=#3a414a;spacing=3.8;strokeOpacity=0;fillOpacity=0;rounded=1;absoluteArcSize=1;arcSize=9;fillColor=#ffffff;strokeWidth=0.8;lucidId=.hk0K4R0nctY;" parent="1" vertex="1">
          <mxGeometry x="383" y="979" width="36" height="68" as="geometry" />
        </mxCell>
        <mxCell id="h8Ty44yPj9Jnduj1fUJp-149" value="木门" style="html=1;overflow=block;blockSpacing=1;whiteSpace=wrap;fontSize=16.7;fontFamily=Liberation Serif;fontColor=#3a414a;spacing=3.8;strokeOpacity=0;fillOpacity=0;rounded=1;absoluteArcSize=1;arcSize=9;fillColor=#ffffff;strokeWidth=0.8;lucidId=.hk0VtN._9AX;" parent="1" vertex="1">
          <mxGeometry x="453" y="979" width="36" height="68" as="geometry" />
        </mxCell>
        <mxCell id="h8Ty44yPj9Jnduj1fUJp-150" value="木门" style="html=1;overflow=block;blockSpacing=1;whiteSpace=wrap;fontSize=16.7;fontFamily=Liberation Serif;fontColor=#3a414a;spacing=3.8;strokeOpacity=0;fillOpacity=0;rounded=1;absoluteArcSize=1;arcSize=9;fillColor=#ffffff;strokeWidth=0.8;lucidId=.hk0BUOQfK26;" parent="1" vertex="1">
          <mxGeometry x="530" y="979" width="36" height="68" as="geometry" />
        </mxCell>
        <mxCell id="h8Ty44yPj9Jnduj1fUJp-151" value="木门" style="html=1;overflow=block;blockSpacing=1;whiteSpace=wrap;fontSize=16.7;fontFamily=Liberation Serif;fontColor=#3a414a;spacing=3.8;strokeOpacity=0;fillOpacity=0;rounded=1;absoluteArcSize=1;arcSize=9;fillColor=#ffffff;strokeWidth=0.8;lucidId=.hk0fgBOeHY5;" parent="1" vertex="1">
          <mxGeometry x="607" y="979" width="36" height="68" as="geometry" />
        </mxCell>
        <mxCell id="h8Ty44yPj9Jnduj1fUJp-153" value="" style="html=1;overflow=block;blockSpacing=1;whiteSpace=wrap;fontSize=13;spacing=0;strokeColor=#3a414a;strokeOpacity=100;rounded=1;absoluteArcSize=1;arcSize=9;rotation=-270;strokeWidth=0.8;lucidId=bkk0pk9TfWND;" parent="1" vertex="1">
          <mxGeometry x="722" y="1138" width="360" height="1" as="geometry" />
        </mxCell>
        <mxCell id="h8Ty44yPj9Jnduj1fUJp-154" value="" style="html=1;overflow=block;blockSpacing=1;whiteSpace=wrap;fontSize=13;spacing=0;strokeColor=#3a414a;strokeOpacity=100;rounded=1;absoluteArcSize=1;arcSize=9;rotation=-270;strokeWidth=0.8;lucidId=bkk0ivuk2xp0;" parent="1" vertex="1">
          <mxGeometry x="1082" y="1138" width="360" height="1" as="geometry" />
        </mxCell>
        <mxCell id="h8Ty44yPj9Jnduj1fUJp-155" value="" style="html=1;overflow=block;blockSpacing=1;whiteSpace=wrap;fontSize=13;spacing=0;strokeColor=#3a414a;strokeOpacity=100;rounded=1;absoluteArcSize=1;arcSize=9;rotation=-270;strokeWidth=0.8;lucidId=bkk0un-0~8Fj;" parent="1" vertex="1">
          <mxGeometry x="962" y="1139" width="360" height="1" as="geometry" />
        </mxCell>
        <mxCell id="h8Ty44yPj9Jnduj1fUJp-156" value="" style="html=1;overflow=block;blockSpacing=1;whiteSpace=wrap;fontSize=13;spacing=0;strokeColor=#3a414a;strokeOpacity=100;rounded=1;absoluteArcSize=1;arcSize=9;rotation=-270;strokeWidth=0.8;lucidId=bkk0-4ydsTLl;" parent="1" vertex="1">
          <mxGeometry x="1022" y="1138" width="360" height="1" as="geometry" />
        </mxCell>
        <mxCell id="h8Ty44yPj9Jnduj1fUJp-157" value="" style="html=1;overflow=block;blockSpacing=1;whiteSpace=wrap;fontSize=13;spacing=0;strokeColor=#3a414a;strokeOpacity=100;rounded=1;absoluteArcSize=1;arcSize=9;rotation=-270;strokeWidth=0.8;lucidId=bkk0SdJ23B35;" parent="1" vertex="1">
          <mxGeometry x="797" y="1138" width="360" height="1" as="geometry" />
        </mxCell>
        <mxCell id="h8Ty44yPj9Jnduj1fUJp-158" value="" style="html=1;overflow=block;blockSpacing=1;whiteSpace=wrap;fontSize=13;spacing=0;strokeColor=#3a414a;strokeOpacity=100;rounded=1;absoluteArcSize=1;arcSize=9;rotation=-270;strokeWidth=0.8;lucidId=bkk08nj9UiWs;" parent="1" vertex="1">
          <mxGeometry x="988" y="1031" width="142" height="1" as="geometry" />
        </mxCell>
        <mxCell id="h8Ty44yPj9Jnduj1fUJp-159" value="" style="html=1;overflow=block;blockSpacing=1;whiteSpace=wrap;fontSize=13;spacing=0;strokeColor=#3a414a;strokeOpacity=100;rounded=1;absoluteArcSize=1;arcSize=9;strokeWidth=0.8;lucidId=bkk03Rrl6Kd2;" parent="1" vertex="1">
          <mxGeometry x="902" y="1198" width="239" height="1" as="geometry" />
        </mxCell>
        <mxCell id="h8Ty44yPj9Jnduj1fUJp-160" value="" style="html=1;overflow=block;blockSpacing=1;whiteSpace=wrap;fontSize=13;spacing=0;strokeColor=#3a414a;strokeOpacity=100;rounded=1;absoluteArcSize=1;arcSize=9;strokeWidth=0.8;lucidId=bkk0P~7QzBbf;" parent="1" vertex="1">
          <mxGeometry x="976" y="1101" width="164" height="1" as="geometry" />
        </mxCell>
        <mxCell id="h8Ty44yPj9Jnduj1fUJp-161" value="" style="html=1;overflow=block;blockSpacing=1;whiteSpace=wrap;fontSize=13;spacing=0;strokeColor=#3a414a;strokeOpacity=100;rounded=1;absoluteArcSize=1;arcSize=9;rotation=-270;strokeWidth=0.8;lucidId=bkk06qF_7oR7;" parent="1" vertex="1">
          <mxGeometry x="973" y="1235" width="170" height="1" as="geometry" />
        </mxCell>
        <mxCell id="h8Ty44yPj9Jnduj1fUJp-162" value="" style="html=1;overflow=block;blockSpacing=1;whiteSpace=wrap;fontSize=13;spacing=0;strokeColor=#3a414a;strokeOpacity=100;rounded=1;absoluteArcSize=1;arcSize=9;strokeWidth=0.8;lucidId=bkk0E-c7qzo9;" parent="1" vertex="1">
          <mxGeometry x="976" y="1150" width="166" height="1" as="geometry" />
        </mxCell>
        <mxCell id="h8Ty44yPj9Jnduj1fUJp-163" value="木门" style="html=1;overflow=block;blockSpacing=1;whiteSpace=wrap;fontSize=16.7;fontFamily=Liberation Serif;fontColor=#3a414a;spacing=3.8;strokeOpacity=0;fillOpacity=0;rounded=1;absoluteArcSize=1;arcSize=9;fillColor=#ffffff;strokeWidth=0.8;lucidId=bkk0k4HL7Wqw;" parent="1" vertex="1">
          <mxGeometry x="1211" y="1118" width="36" height="68" as="geometry" />
        </mxCell>
        <mxCell id="h8Ty44yPj9Jnduj1fUJp-164" value="木门" style="html=1;overflow=block;blockSpacing=1;whiteSpace=wrap;fontSize=16.7;fontFamily=Liberation Serif;fontColor=#3a414a;spacing=3.8;strokeOpacity=0;fillOpacity=0;rounded=1;absoluteArcSize=1;arcSize=9;fillColor=#ffffff;strokeWidth=0.8;lucidId=bkk0YwnqsmmU;" parent="1" vertex="1">
          <mxGeometry x="1276" y="1116" width="36" height="68" as="geometry" />
        </mxCell>
        <mxCell id="h8Ty44yPj9Jnduj1fUJp-165" value="木门" style="html=1;overflow=block;blockSpacing=1;whiteSpace=wrap;fontSize=16.7;fontFamily=Liberation Serif;fontColor=#3a414a;spacing=3.8;strokeOpacity=0;fillOpacity=0;rounded=1;absoluteArcSize=1;arcSize=9;fillColor=#ffffff;strokeWidth=0.8;lucidId=bkk0A.bbnnR_;" parent="1" vertex="1">
          <mxGeometry x="853" y="1116" width="36" height="68" as="geometry" />
        </mxCell>
        <mxCell id="h8Ty44yPj9Jnduj1fUJp-166" value="木门" style="html=1;overflow=block;blockSpacing=1;whiteSpace=wrap;fontSize=16.7;fontFamily=Liberation Serif;fontColor=#3a414a;spacing=3.8;strokeOpacity=0;fillOpacity=0;rounded=1;absoluteArcSize=1;arcSize=9;fillColor=#ffffff;strokeWidth=0.8;lucidId=bkk0MtcZ2CW9;" parent="1" vertex="1">
          <mxGeometry x="1004" y="992" width="36" height="68" as="geometry" />
        </mxCell>
        <mxCell id="h8Ty44yPj9Jnduj1fUJp-167" value="木门" style="html=1;overflow=block;blockSpacing=1;whiteSpace=wrap;fontSize=16.7;fontFamily=Liberation Serif;fontColor=#3a414a;spacing=3.8;strokeOpacity=0;fillOpacity=0;rounded=1;absoluteArcSize=1;arcSize=9;fillColor=#ffffff;strokeWidth=0.8;lucidId=bkk0PNInNzQ2;" parent="1" vertex="1">
          <mxGeometry x="1082" y="992" width="36" height="68" as="geometry" />
        </mxCell>
        <mxCell id="h8Ty44yPj9Jnduj1fUJp-168" value="木门" style="html=1;overflow=block;blockSpacing=1;whiteSpace=wrap;fontSize=16.7;fontFamily=Liberation Serif;fontColor=#3a414a;spacing=3.8;strokeOpacity=0;fillOpacity=0;rounded=1;absoluteArcSize=1;arcSize=9;fillColor=#ffffff;strokeWidth=0.8;lucidId=bkk0Tx63TVOA;" parent="1" vertex="1">
          <mxGeometry x="1003" y="1229" width="36" height="68" as="geometry" />
        </mxCell>
        <mxCell id="h8Ty44yPj9Jnduj1fUJp-169" value="木门" style="html=1;overflow=block;blockSpacing=1;whiteSpace=wrap;fontSize=16.7;fontFamily=Liberation Serif;fontColor=#3a414a;spacing=3.8;strokeOpacity=0;fillOpacity=0;rounded=1;absoluteArcSize=1;arcSize=9;fillColor=#ffffff;strokeWidth=0.8;lucidId=bkk090Jc4kSx;" parent="1" vertex="1">
          <mxGeometry x="1082" y="1225" width="36" height="68" as="geometry" />
        </mxCell>
        <mxCell id="h8Ty44yPj9Jnduj1fUJp-170" value="开放格" style="html=1;overflow=block;blockSpacing=1;whiteSpace=wrap;fontSize=16.7;fontFamily=Liberation Serif;fontColor=#3a414a;spacing=3.8;strokeOpacity=0;fillOpacity=0;rounded=1;absoluteArcSize=1;arcSize=9;fillColor=#ffffff;strokeWidth=0.8;lucidId=bkk0hIPI0C8A;" parent="1" vertex="1">
          <mxGeometry x="911" y="1086" width="60" height="32" as="geometry" />
        </mxCell>
        <mxCell id="h8Ty44yPj9Jnduj1fUJp-171" value="开放格" style="html=1;overflow=block;blockSpacing=1;whiteSpace=wrap;fontSize=16.7;fontFamily=Liberation Serif;fontColor=#3a414a;spacing=3.8;strokeOpacity=0;fillOpacity=0;rounded=1;absoluteArcSize=1;arcSize=9;fillColor=#ffffff;strokeWidth=0.8;lucidId=bkk0N5OftFVs;" parent="1" vertex="1">
          <mxGeometry x="910" y="1241" width="60" height="32" as="geometry" />
        </mxCell>
        <mxCell id="h8Ty44yPj9Jnduj1fUJp-172" value="玻璃" style="html=1;overflow=block;blockSpacing=1;whiteSpace=wrap;fontSize=16.7;fontFamily=Liberation Serif;fontColor=#3a414a;spacing=3.8;strokeOpacity=0;fillOpacity=0;rounded=1;absoluteArcSize=1;arcSize=9;fillColor=#ffffff;strokeWidth=0.8;lucidId=bkk0eOJKyyCI;" parent="1" vertex="1">
          <mxGeometry x="1157" y="1128" width="30" height="45" as="geometry" />
        </mxCell>
        <mxCell id="h8Ty44yPj9Jnduj1fUJp-173" value="" style="html=1;overflow=block;blockSpacing=1;whiteSpace=wrap;ellipse;fontSize=13;spacing=3.8;strokeColor=#3a414a;strokeOpacity=100;rounded=1;absoluteArcSize=1;arcSize=9;strokeWidth=0.8;lucidId=bkk0ZidOWN0N;" parent="1" vertex="1">
          <mxGeometry x="935" y="1297" width="10" height="10" as="geometry" />
        </mxCell>
        <mxCell id="h8Ty44yPj9Jnduj1fUJp-174" value="书格" style="html=1;overflow=block;blockSpacing=1;whiteSpace=wrap;fontSize=16.7;fontFamily=Liberation Serif;fontColor=#3a414a;spacing=3.8;strokeOpacity=0;fillOpacity=0;rounded=1;absoluteArcSize=1;arcSize=9;fillColor=#ffffff;strokeWidth=0.8;lucidId=bkk0vdvAO.sw;" parent="1" vertex="1">
          <mxGeometry x="1026" y="1110" width="60" height="26" as="geometry" />
        </mxCell>
        <mxCell id="h8Ty44yPj9Jnduj1fUJp-175" value="" style="html=1;overflow=block;blockSpacing=1;whiteSpace=wrap;fontSize=13;spacing=0;strokeColor=#3a414a;strokeOpacity=100;rounded=1;absoluteArcSize=1;arcSize=9;strokeWidth=0.8;lucidId=bkk0q457Qeqg;" parent="1" vertex="1">
          <mxGeometry x="842" y="1019" width="59" height="1" as="geometry" />
        </mxCell>
        <mxCell id="h8Ty44yPj9Jnduj1fUJp-176" value="监控格" style="html=1;overflow=block;blockSpacing=1;whiteSpace=wrap;fontSize=16.7;fontFamily=Liberation Serif;fontColor=#3a414a;spacing=3.8;strokeOpacity=0;fillOpacity=0;rounded=1;absoluteArcSize=1;arcSize=9;fillColor=#ffffff;strokeWidth=0.8;lucidId=bkk03Pp3HAJB;" parent="1" vertex="1">
          <mxGeometry x="841" y="977" width="60" height="32" as="geometry" />
        </mxCell>
        <mxCell id="h8Ty44yPj9Jnduj1fUJp-177" value="书格" style="html=1;overflow=block;blockSpacing=1;whiteSpace=wrap;fontSize=16.7;fontFamily=Liberation Serif;fontColor=#3a414a;spacing=3.8;strokeOpacity=0;fillOpacity=0;rounded=1;absoluteArcSize=1;arcSize=9;fillColor=#ffffff;strokeWidth=0.8;lucidId=Mnk0bhsdD7cv;" parent="1" vertex="1">
          <mxGeometry x="987" y="1152" width="60" height="48" as="geometry" />
        </mxCell>
        <mxCell id="h8Ty44yPj9Jnduj1fUJp-178" value="书格" style="html=1;overflow=block;blockSpacing=1;whiteSpace=wrap;fontSize=16.7;fontFamily=Liberation Serif;fontColor=#3a414a;spacing=3.8;strokeOpacity=0;fillOpacity=0;rounded=1;absoluteArcSize=1;arcSize=9;fillColor=#ffffff;strokeWidth=0.8;lucidId=Nnk0K7IZeUnC;" parent="1" vertex="1">
          <mxGeometry x="1070" y="1153" width="60" height="48" as="geometry" />
        </mxCell>
      </root>
    </mxGraphModel>
  </diagram>
</mxfile>
